<svg version="1.2" xmlns="http://www.w3.org/2000/svg" viewBox="0 0 1080 1080" width="600" height="600">
	<title>Новий проект</title>
	<defs>
		<linearGradient id="g1" x2="1" gradientUnits="userSpaceOnUse" gradientTransform="matrix(1053,737.319,-738.362,1054.491,16,168.831)">
			<stop offset="0" stop-color="#2377f0"/>
			<stop offset=".01" stop-color="#2377f0"/>
			<stop offset="1" stop-color="#ffffff"/>
		</linearGradient>
	</defs>
	<style>
		.s0 { fill: url(#g1) } 
	</style>
	<path id="Форма 1" fill-rule="evenodd" class="s0" d="m16 537.5c0-140.2 55.5-274.7 154.2-373.8 98.7-99.2 232.7-154.8 372.3-154.8 139.6 0 273.6 55.6 372.3 154.8 98.7 99.1 154.2 233.6 154.2 373.8 0 140.2-55.5 274.7-154.2 373.8-98.7 99.1-232.7 154.8-372.3 154.8-139.6 0-273.6-55.7-372.3-154.8-98.7-99.1-154.2-233.6-154.2-373.8zm954.3 0c0-113.9-45.1-223.2-125.3-303.7-80.2-80.6-189-125.8-302.5-125.8-113.5 0-222.3 45.2-302.5 125.8-80.2 80.5-125.3 189.8-125.3 303.7 0 113.9 45.1 223.2 125.3 303.7 80.2 80.6 189 125.8 302.5 125.8 113.5 0 222.3-45.2 302.5-125.8 80.2-80.5 125.3-189.8 125.3-303.7zm-323.5 142.7l-296.8 114.6c-39.9 15.5-79.2-24-63.8-64l114.2-298c6.8-17.6 20.3-31.2 37.8-38l296.8-114.6c39.9-15.5 79.2 23.9 63.8 64l-114.2 298c-6.6 17.5-20.3 31.2-37.8 38zm-38.5-142.7c0-17.5-6.9-34.3-19.3-46.7-12.3-12.4-29-19.4-46.5-19.4-17.5 0-34.2 7-46.5 19.4-12.4 12.4-19.3 29.2-19.3 46.7 0 17.5 6.9 34.3 19.3 46.7 12.3 12.4 29 19.4 46.5 19.4 17.5 0 34.2-7 46.5-19.4 12.4-12.4 19.3-29.2 19.3-46.7z"/>
</svg>